Coordinates
version=1
nRows=17
nColumns=63
inDegrees=yes

Units are S.I. units (second, meters, Newtons, ...)
If the header above contains a line with 'inDegrees', this indicates whether rotational values are in degrees (yes) or radians (no).

endheader
time	pelvis_tilt	pelvis_list	pelvis_rotation	pelvis_tx	pelvis_ty	pelvis_tz	hip_flexion_r	hip_adduction_r	hip_rotation_r	knee_angle_r	knee_angle_r_beta	ankle_angle_r	subtalar_angle_r	mtp_angle_r	hip_flexion_l	hip_adduction_l	hip_rotation_l	knee_angle_l	knee_angle_l_beta	ankle_angle_l	subtalar_angle_l	mtp_angle_l	L5_S1_Flex_Ext	L5_S1_Lat_Bending	L5_S1_axial_rotation	L4_L5_Flex_Ext	L4_L5_Lat_Bending	L4_L5_axial_rotation	L3_L4_Flex_Ext	L3_L4_Lat_Bending	L3_L4_axial_rotation	L2_L3_Flex_Ext	L2_L3_Lat_Bending	L2_L3_axial_rotation	L1_L2_Flex_Ext	L1_L2_Lat_Bending	L1_L2_axial_rotation	L1_T12_Flex_Ext	L1_T12_Lat_Bending	L1_T12_axial_rotation	Abs_r3	Abs_r2	Abs_r1	Abs_t1	Abs_t2	neck_flexion	neck_bending	neck_rotation	arm_flex_r	arm_add_r	arm_rot_r	elbow_flex_r	pro_sup_r	wrist_flex_r	wrist_dev_r	arm_flex_l	arm_add_l	arm_rot_l	elbow_flex_l	pro_sup_l	wrist_flex_l	wrist_dev_l
3.300000	-0.433066	-24.027684	91.210629	0.145470	0.627150	0.846833	53.321499	-5.647204	-6.055259	42.726575	0.745719	51.204058	10.266556	0.000000	49.910753	-0.808177	-6.988455	36.131137	0.630607	50.952528	18.963753	0.000000	-0.384144	-0.217752	-0.393689	-0.713393	-0.289610	-0.418294	-0.631110	-0.529442	-0.418294	-0.439038	-0.529442	-0.344478	-0.356716	-0.444039	-0.319872	-0.219500	-0.337297	-0.295267	-2.743899	-2.463251	-2.189578	0.000000	0.000000	20.064510	0.437735	7.118100	38.289639	-13.914439	2.665896	69.566760	67.353300	-9.181744	17.434615	34.366001	-12.510191	3.407153	85.512468	88.425544	-13.421242	13.283231
3.316667	-1.027719	-24.032586	90.822433	0.145673	0.626827	0.847139	53.522249	-5.908758	-5.418920	43.031509	0.751042	51.161098	9.995600	0.000000	49.694834	-0.510431	-7.524761	35.920657	0.626934	50.779437	18.959744	0.000000	-0.392220	-0.279253	-0.310175	-0.728392	-0.371407	-0.329561	-0.644378	-0.678976	-0.329561	-0.448268	-0.678976	-0.271403	-0.364215	-0.569453	-0.252017	-0.224114	-0.432563	-0.232631	-2.801588	-3.158969	-1.725101	0.000000	0.000000	20.063710	0.630654	6.713297	37.871588	-13.947768	1.227015	70.186802	64.949580	-8.970329	17.747781	34.785675	-12.821094	2.762579	85.962466	88.158518	-13.972179	13.626033
3.333333	-1.669084	-23.968100	90.417628	0.146036	0.626869	0.847060	53.594395	-6.146595	-4.668454	43.273155	0.755259	51.092314	9.609792	0.000000	49.331708	-0.190095	-8.110296	35.625361	0.621780	50.589862	18.949947	0.000000	-0.393203	-0.350062	-0.232108	-0.730217	-0.465583	-0.246615	-0.645993	-0.851141	-0.246615	-0.449392	-0.851141	-0.203095	-0.365128	-0.713847	-0.188588	-0.224676	-0.542246	-0.174081	-2.808609	-3.959973	-1.290916	0.000000	0.000000	19.887135	0.925045	6.102904	37.432982	-13.897740	0.132202	70.678929	63.329129	-8.799364	17.892315	35.360064	-13.137352	2.429998	86.117898	87.986419	-14.331977	14.075242
3.350000	-2.300024	-23.861145	90.033474	0.146485	0.627255	0.846582	53.556341	-6.328387	-3.822717	43.436238	0.758105	50.999010	9.091490	0.000000	48.861416	0.128708	-8.701334	35.249729	0.615224	50.396541	18.935955	0.000000	-0.381458	-0.421662	-0.168658	-0.708405	-0.560811	-0.179199	-0.626697	-1.025229	-0.179199	-0.435968	-1.025229	-0.147576	-0.354221	-0.859853	-0.137035	-0.217965	-0.653155	-0.126494	-2.724713	-4.769926	-0.938027	0.000000	0.000000	19.521331	1.281547	5.390006	36.962475	-13.770594	-0.539389	71.048811	62.696366	-8.668820	17.793884	35.955073	-13.448279	2.326034	86.046251	87.882390	-14.486001	14.518851
3.366667	-2.815166	-23.688514	89.755851	0.146913	0.627951	0.845792	53.383308	-6.452820	-3.080125	43.517743	0.759528	50.907303	8.585608	0.000000	48.337923	0.403760	-9.192766	34.902874	0.609170	50.221461	18.911752	0.000000	-0.364835	-0.480678	-0.125017	-0.677535	-0.639302	-0.132830	-0.599388	-1.168720	-0.132830	-0.416970	-1.168720	-0.109390	-0.338786	-0.980198	-0.101576	-0.208467	-0.744570	-0.093763	-2.605981	-5.437525	-0.695306	0.000000	0.000000	19.029430	1.637220	4.648492	36.436110	-13.575915	-0.870672	71.414403	63.016761	-8.325322	17.617956	36.519920	-13.767485	2.484325	85.828883	87.829544	-14.537260	14.888843
3.383333	-3.246167	-23.461815	89.529643	0.147402	0.628943	0.844690	53.094858	-6.492258	-2.329403	43.522685	0.759614	50.806657	7.994278	0.000000	47.741756	0.635398	-9.624487	34.539062	0.602820	50.064319	18.884991	0.000000	-0.341940	-0.530253	-0.096644	-0.635016	-0.705237	-0.102684	-0.561772	-1.289257	-0.102684	-0.390803	-1.289257	-0.084563	-0.317525	-1.081292	-0.078523	-0.195384	-0.821362	-0.072483	-2.442440	-5.998329	-0.537504	0.000000	0.000000	18.398594	2.008944	3.965959	35.839902	-13.294047	-0.823233	71.753163	64.234785	-8.043685	17.182799	36.904394	-14.089643	2.798035	85.564284	87.829855	-14.445616	15.053046
3.400000	-3.497633	-23.188896	89.424931	0.147814	0.630155	0.843339	52.683684	-6.421187	-1.673731	43.438888	0.758152	50.695551	7.319537	0.000000	47.122777	0.778054	-9.906963	34.220068	0.597253	49.947415	18.855619	0.000000	-0.314498	-0.557518	-0.091530	-0.584054	-0.741499	-0.097250	-0.516689	-1.355550	-0.097250	-0.359440	-1.355550	-0.080088	-0.292043	-1.136891	-0.074368	-0.179704	-0.863596	-0.068647	-2.246428	-6.306757	-0.509060	0.000000	0.000000	17.652387	2.325350	3.454126	35.174151	-12.979852	-0.398705	72.122335	66.086014	-7.852352	16.528619	37.005283	-14.333636	3.149298	85.315274	87.893962	-14.211480	14.929747
3.416667	-3.575373	-22.868116	89.430871	0.148179	0.631547	0.841801	52.158354	-6.249529	-1.131541	43.279280	0.755366	50.569724	6.573378	0.000000	46.471675	0.835396	-10.044549	33.919309	0.592004	49.863557	18.825100	0.000000	-0.286216	-0.564517	-0.109302	-0.531532	-0.750808	-0.116134	-0.470224	-1.372567	-0.116134	-0.327116	-1.372567	-0.095640	-0.265780	-1.151163	-0.088808	-0.163544	-0.874437	-0.081977	-2.044412	-6.385930	-0.607907	0.000000	0.000000	16.849465	2.602626	3.087452	34.432322	-12.622328	0.406135	72.515856	68.630482	-8.000134	15.477563	36.798773	-14.466194	3.445337	85.132486	88.061430	-13.890747	14.579334
3.433333	-3.530757	-22.523307	89.519393	0.148543	0.633017	0.840129	51.556936	-6.010751	-0.666415	43.065367	0.751632	50.441184	5.771313	0.000000	45.807750	0.831317	-10.079234	33.637479	0.587085	49.820660	18.799873	0.000000	-0.256102	-0.559099	-0.139351	-0.475607	-0.743601	-0.148060	-0.420750	-1.359393	-0.148060	-0.292699	-1.359393	-0.121932	-0.237817	-1.140114	-0.113223	-0.146337	-0.866044	-0.104513	-1.829313	-6.324638	-0.775029	0.000000	0.000000	16.063439	2.847175	2.776849	33.553784	-12.301062	1.512142	73.006828	71.116705	-8.234511	14.200406	36.369119	-14.468794	3.729947	84.951698	88.345038	-13.586442	13.958386
3.450000	-3.369586	-22.163910	89.690279	0.148915	0.634515	0.838364	50.892291	-5.710885	-0.282059	42.799605	0.746994	50.307311	4.921568	0.000000	45.137984	0.768835	-10.014239	33.360292	0.582247	49.810929	18.776588	0.000000	-0.225536	-0.542202	-0.180307	-0.418842	-0.721129	-0.191576	-0.370532	-1.318310	-0.191576	-0.257765	-1.318310	-0.157769	-0.209432	-1.105658	-0.146500	-0.128871	-0.839871	-0.135230	-1.610978	-6.133497	-1.002814	0.000000	0.000000	15.389495	3.017502	2.527422	32.519933	-12.010418	2.826361	73.636580	73.670038	-8.472678	12.864765	35.767684	-14.316735	3.933432	84.769595	88.704983	-13.237240	13.304507
3.466667	-3.275299	-21.779071	89.799081	0.149541	0.636053	0.836501	50.198745	-5.399894	0.198955	42.519186	0.742100	50.174234	4.042662	0.000000	44.391990	0.711641	-10.012514	33.003616	0.576022	49.813528	18.761471	0.000000	-0.198150	-0.537735	-0.215921	-0.367984	-0.715188	-0.229416	-0.325541	-1.307450	-0.229416	-0.226466	-1.307450	-0.188931	-0.184002	-1.096550	-0.175436	-0.113223	-0.832952	-0.161941	-1.415366	-6.082970	-1.200890	0.000000	0.000000	14.933939	3.158749	2.212088	31.307326	-11.693925	4.236200	74.392229	76.200342	-8.497299	11.582971	35.081158	-14.098850	4.114165	84.550450	89.010429	-12.782393	12.680479
3.483333	-3.170885	-21.382969	89.904423	0.150305	0.637597	0.834538	49.454130	-5.066615	0.669558	42.183686	0.736244	50.041234	3.169385	0.000000	43.601340	0.639217	-9.997074	32.578704	0.568606	49.819181	18.753018	0.000000	-0.172139	-0.535714	-0.251174	-0.319680	-0.712499	-0.266872	-0.282807	-1.302534	-0.266872	-0.196738	-1.302534	-0.219777	-0.159848	-1.092427	-0.204079	-0.098360	-0.829820	-0.188381	-1.229572	-6.060100	-1.396955	0.000000	0.000000	14.773695	3.163047	1.869956	29.962162	-11.414245	5.785820	75.282155	78.708847	-8.215941	10.516878	34.274004	-13.805331	4.251616	84.321346	89.171401	-12.196914	12.197780
3.500000	-3.059177	-20.977307	90.006442	0.151137	0.639169	0.832441	48.636388	-4.726576	1.127491	41.766533	0.728964	49.898932	2.327420	0.000000	42.740910	0.568034	-9.969491	32.038116	0.559171	49.815178	18.752002	0.000000	-0.146852	-0.535817	-0.283705	-0.272719	-0.712637	-0.301436	-0.241263	-1.302787	-0.301436	-0.167837	-1.302787	-0.248242	-0.136367	-1.092639	-0.230510	-0.083911	-0.829981	-0.212779	-1.048949	-6.061274	-1.577881	0.000000	0.000000	14.934628	2.977011	1.482933	28.520792	-11.201372	7.504555	76.286581	81.124702	-7.636748	9.669036	33.303068	-13.440631	4.372813	84.080792	89.134849	-11.462854	11.740434
3.516667	-2.970841	-20.574450	90.075769	0.152053	0.640751	0.830209	47.751217	-4.400644	1.575401	41.263011	0.720175	49.736849	1.534336	0.000000	41.809072	0.515495	-9.945972	31.366081	0.547441	49.778796	18.743695	0.000000	-0.120135	-0.541895	-0.309816	-0.223103	-0.720720	-0.329180	-0.197370	-1.317563	-0.329180	-0.137302	-1.317563	-0.271089	-0.111557	-1.105032	-0.251726	-0.068645	-0.839395	-0.232362	-0.858113	-6.130021	-1.723106	0.000000	0.000000	15.405191	2.595059	1.036951	27.049149	-11.057946	9.431487	77.378529	83.323025	-6.895820	9.048077	32.119451	-13.060187	4.528833	83.908905	88.770628	-10.553314	11.351244
3.533333	-2.894025	-20.147831	90.107054	0.153042	0.642394	0.827791	46.750676	-4.091811	1.989296	40.657406	0.709606	49.549088	0.809059	0.000000	40.759615	0.473502	-9.933897	30.545566	0.533121	49.693391	18.732856	0.000000	-0.095226	-0.553116	-0.321559	-0.176843	-0.735644	-0.341657	-0.156446	-1.344845	-0.341657	-0.108833	-1.344845	-0.281364	-0.088426	-1.127913	-0.261267	-0.054412	-0.856776	-0.241169	-0.680187	-6.256954	-1.788416	0.000000	0.000000	16.132791	2.047990	0.492101	25.563159	-10.993543	11.509712	78.516815	85.274627	-6.111246	8.528908	30.711444	-12.678646	4.796708	83.805960	88.093134	-9.452745	10.999155
3.550000	-2.800706	-19.707697	90.088420	0.154017	0.644097	0.825204	45.627181	-3.774253	2.366881	39.913924	0.696629	49.313031	0.130977	0.000000	39.600863	0.417490	-9.928219	29.581468	0.516294	49.550466	18.702506	0.000000	-0.069480	-0.562689	-0.317566	-0.129031	-0.748377	-0.337414	-0.114149	-1.368123	-0.337414	-0.079409	-1.368123	-0.277870	-0.064519	-1.147436	-0.258022	-0.039701	-0.871606	-0.238174	-0.496288	-6.365256	-1.766205	0.000000	0.000000	17.053397	1.295457	0.036037	24.133210	-10.992416	13.701441	79.644042	86.881041	-5.472122	8.147833	29.047793	-12.309588	5.208661	83.793033	86.902034	-8.148917	10.695045
3.566667	-2.663516	-19.247009	90.042306	0.154900	0.645899	0.822427	44.353190	-3.456945	2.624013	39.002534	0.680723	49.026619	-0.434725	0.000000	38.334164	0.332263	-9.917242	28.498533	0.497393	49.349948	18.647336	0.000000	-0.042630	-0.566054	-0.302398	-0.079168	-0.752852	-0.321298	-0.070036	-1.376304	-0.321298	-0.048721	-1.376304	-0.264598	-0.039586	-1.154297	-0.245699	-0.024359	-0.876818	-0.226799	-0.304500	-6.403316	-1.681848	0.000000	0.000000	18.079667	0.386841	-0.214625	22.773742	-11.071996	15.988884	80.669122	88.044402	-5.107568	7.727512	27.168371	-11.983546	5.847260	83.843247	85.175824	-6.720138	10.513538
